<?xml version="1.0" encoding="utf-8"?>
<!-- Generator: Adobe Illustrator 25.0.0, SVG Export Plug-In . SVG Version: 6.00 Build 0)  -->
<svg version="1.1" id="Layer_1" xmlns="http://www.w3.org/2000/svg" xmlns:xlink="http://www.w3.org/1999/xlink" x="0px" y="0px"
	 viewBox="0 0 6192 528.2" style="enable-background:new 0 0 6192 528.2;" xml:space="preserve">
<style type="text/css">
	.st0{fill:#FFFFFF;}
</style>
<path class="st0" d="M6222,383.6c-171.4,47.7-114.6,2.5-298.2-8.4c-112.2-6.7-228.1,23-359.9,6c-109.3-14.1-204.3-45.8-290.3-80.8
	c-67.1-27.2-44.7-39.2-142.3-35.7c-42.7,1.5-115.8,18.6-151.4,30.1c-119.8,38.9-125.3,77.6-281.6,77.4
	c-119.1-0.1-186.1-26.4-294.3-15.1c-93.2,9.7-136.3,35-237.4-6.6c-77.8-32-79-80.9-216.1-65.5c-121.1,13.6-199.2,79.6-269.7,123.2
	c-97.6,60.3-199,64.4-337.4,39.5c-65.9-11.9-65.1-31.6-154.5-21c-60.1,7.1-80.5,24.7-145,26.5c-207.3,5.8-231.5-164.5-420.8-119.5
	c-136.7,32.6-229.2,182.6-431.6,106.9c-82.2-30.8-52.3-86.8-181.1-80.5c-121.6,5.9-117.8,77.7-209.8,100.6
	c-93.1,23.2-183.9-17.8-253.7-32.8c-118.2-25.4-129.7,7.8-247.3,24.1c-197.7,27.4-204.6-116.8-390.1-92.6
	c-208.6,27.2-235.9,136.6-487.4,96.1c-87.4-14.1-136-32.6-232.2-14.5C100.5,457.9,78.9,510.4,30,528.2h6192V383.6z"/>
</svg>
